<?xml version="1.0" encoding="UTF-8" standalone="no"?>
<svg
   xmlns:dc="http://purl.org/dc/elements/1.1/"
   xmlns:cc="http://creativecommons.org/ns#"
   xmlns:rdf="http://www.w3.org/1999/02/22-rdf-syntax-ns#"
   xmlns:svg="http://www.w3.org/2000/svg"
   xmlns="http://www.w3.org/2000/svg"
   id="svg8"
   version="1.1"
   viewBox="0 0 13.229166 13.229167"
   height="50"
   width="50">
  <defs
     id="defs2" />
  <metadata
     id="metadata5">
    <rdf:RDF>
      <cc:Work
         rdf:about="">
        <dc:format>image/svg+xml</dc:format>
        <dc:type
           rdf:resource="http://purl.org/dc/dcmitype/StillImage" />
        <dc:title></dc:title>
      </cc:Work>
    </rdf:RDF>
  </metadata>
  <g
     transform="translate(0,-283.77082)"
     id="layer1">
    <g
       transform="matrix(1.2477904,0,0,1.2541649,43.611413,-64.762108)"
       id="g4512">
      <path
         style="fill:#00ff00;fill-opacity:1;stroke:#000000;stroke-width:0.26458332;stroke-opacity:1"
         id="path4506"
         d="m -279.29212,-13.602623 a 5.1680989,5.1680989 0 0 1 -5.64718,3.9357488 5.1680989,5.1680989 0 0 1 -4.54881,-5.1661588 5.1680989,5.1680989 0 0 1 4.61892,-5.103566 5.1680989,5.1680989 0 0 1 5.59292,4.012491 l -5.04386,1.126359 z"
         transform="rotate(-86.997373)" />
      <path
         style="fill:#00ffe9;fill-opacity:1;stroke:#000000;stroke-width:0.26458332;stroke-opacity:1"
         id="path4508"
         d="m -28.326225,284.70025 -1.284797,-0.81893 -1.204752,0.84372 0.381828,-1.47498 -1.174713,-0.88507 1.520779,-0.0926 0.47874,-1.39072 0.558065,1.41772 1.470591,0.0256 -1.175877,0.96885 z" />
    </g>
  </g>
</svg>
